<mxfile host="app.diagrams.net" modified="2022-08-19T07:28:38.311Z" agent="5.0 (Windows NT 10.0; Win64; x64) AppleWebKit/537.36 (KHTML, like Gecko) Chrome/104.0.0.0 Safari/537.36" etag="zUk6s3U8YQuCqtUgLABL" version="20.2.5" type="github">
  <diagram id="C5RBs43oDa-KdzZeNtuy" name="Page-1">
    <mxGraphModel dx="2889" dy="1154" grid="1" gridSize="10" guides="1" tooltips="1" connect="1" arrows="1" fold="1" page="1" pageScale="1" pageWidth="827" pageHeight="1169" math="0" shadow="0">
      <root>
        <mxCell id="WIyWlLk6GJQsqaUBKTNV-0" />
        <mxCell id="WIyWlLk6GJQsqaUBKTNV-1" parent="WIyWlLk6GJQsqaUBKTNV-0" />
        <mxCell id="WIyWlLk6GJQsqaUBKTNV-2" value="" style="rounded=0;html=1;jettySize=auto;orthogonalLoop=1;fontSize=11;endArrow=block;endFill=0;endSize=8;strokeWidth=1;shadow=0;labelBackgroundColor=none;edgeStyle=orthogonalEdgeStyle;" parent="WIyWlLk6GJQsqaUBKTNV-1" source="WIyWlLk6GJQsqaUBKTNV-3" edge="1">
          <mxGeometry relative="1" as="geometry">
            <mxPoint x="220" y="170" as="targetPoint" />
          </mxGeometry>
        </mxCell>
        <mxCell id="WIyWlLk6GJQsqaUBKTNV-3" value="本地资源生成，生成资源与资源列表local_list" style="rounded=1;whiteSpace=wrap;html=1;fontSize=12;glass=0;strokeWidth=1;shadow=0;" parent="WIyWlLk6GJQsqaUBKTNV-1" vertex="1">
          <mxGeometry x="160" y="80" width="120" height="40" as="geometry" />
        </mxCell>
        <mxCell id="7_esvoWY841IkbyZ4QoX-1" value="" style="edgeStyle=orthogonalEdgeStyle;rounded=0;orthogonalLoop=1;jettySize=auto;html=1;" edge="1" parent="WIyWlLk6GJQsqaUBKTNV-1" source="WIyWlLk6GJQsqaUBKTNV-11" target="7_esvoWY841IkbyZ4QoX-0">
          <mxGeometry relative="1" as="geometry" />
        </mxCell>
        <mxCell id="WIyWlLk6GJQsqaUBKTNV-11" value="拉取服务器的资源列表online_list" style="rounded=1;whiteSpace=wrap;html=1;fontSize=12;glass=0;strokeWidth=1;shadow=0;" parent="WIyWlLk6GJQsqaUBKTNV-1" vertex="1">
          <mxGeometry x="160" y="170" width="120" height="40" as="geometry" />
        </mxCell>
        <mxCell id="7_esvoWY841IkbyZ4QoX-3" value="" style="edgeStyle=orthogonalEdgeStyle;rounded=0;orthogonalLoop=1;jettySize=auto;html=1;" edge="1" parent="WIyWlLk6GJQsqaUBKTNV-1" source="7_esvoWY841IkbyZ4QoX-0" target="7_esvoWY841IkbyZ4QoX-2">
          <mxGeometry relative="1" as="geometry" />
        </mxCell>
        <mxCell id="7_esvoWY841IkbyZ4QoX-28" style="edgeStyle=orthogonalEdgeStyle;rounded=0;orthogonalLoop=1;jettySize=auto;html=1;" edge="1" parent="WIyWlLk6GJQsqaUBKTNV-1" source="7_esvoWY841IkbyZ4QoX-0" target="7_esvoWY841IkbyZ4QoX-29">
          <mxGeometry relative="1" as="geometry">
            <mxPoint x="540" y="280" as="targetPoint" />
          </mxGeometry>
        </mxCell>
        <mxCell id="7_esvoWY841IkbyZ4QoX-0" value="对比资源列表，提取出差异资源" style="whiteSpace=wrap;html=1;rounded=1;glass=0;strokeWidth=1;shadow=0;" vertex="1" parent="WIyWlLk6GJQsqaUBKTNV-1">
          <mxGeometry x="160" y="250" width="120" height="60" as="geometry" />
        </mxCell>
        <mxCell id="7_esvoWY841IkbyZ4QoX-5" value="" style="edgeStyle=orthogonalEdgeStyle;rounded=0;orthogonalLoop=1;jettySize=auto;html=1;" edge="1" parent="WIyWlLk6GJQsqaUBKTNV-1" source="7_esvoWY841IkbyZ4QoX-2">
          <mxGeometry relative="1" as="geometry">
            <mxPoint x="220" y="440" as="targetPoint" />
          </mxGeometry>
        </mxCell>
        <mxCell id="7_esvoWY841IkbyZ4QoX-2" value="上传差异资源" style="whiteSpace=wrap;html=1;rounded=1;glass=0;strokeWidth=1;shadow=0;" vertex="1" parent="WIyWlLk6GJQsqaUBKTNV-1">
          <mxGeometry x="160" y="340" width="120" height="60" as="geometry" />
        </mxCell>
        <mxCell id="7_esvoWY841IkbyZ4QoX-10" value="" style="edgeStyle=orthogonalEdgeStyle;rounded=0;orthogonalLoop=1;jettySize=auto;html=1;" edge="1" parent="WIyWlLk6GJQsqaUBKTNV-1" source="7_esvoWY841IkbyZ4QoX-6" target="7_esvoWY841IkbyZ4QoX-9">
          <mxGeometry relative="1" as="geometry" />
        </mxCell>
        <mxCell id="7_esvoWY841IkbyZ4QoX-6" value="上传local_list，替换服务器上的list" style="whiteSpace=wrap;html=1;rounded=1;glass=0;strokeWidth=1;shadow=0;" vertex="1" parent="WIyWlLk6GJQsqaUBKTNV-1">
          <mxGeometry x="160" y="440" width="120" height="60" as="geometry" />
        </mxCell>
        <mxCell id="7_esvoWY841IkbyZ4QoX-14" value="" style="edgeStyle=orthogonalEdgeStyle;rounded=0;orthogonalLoop=1;jettySize=auto;html=1;" edge="1" parent="WIyWlLk6GJQsqaUBKTNV-1" source="7_esvoWY841IkbyZ4QoX-9" target="7_esvoWY841IkbyZ4QoX-13">
          <mxGeometry relative="1" as="geometry" />
        </mxCell>
        <mxCell id="7_esvoWY841IkbyZ4QoX-18" value="" style="edgeStyle=orthogonalEdgeStyle;rounded=0;orthogonalLoop=1;jettySize=auto;html=1;" edge="1" parent="WIyWlLk6GJQsqaUBKTNV-1" source="7_esvoWY841IkbyZ4QoX-9" target="7_esvoWY841IkbyZ4QoX-17">
          <mxGeometry relative="1" as="geometry" />
        </mxCell>
        <mxCell id="7_esvoWY841IkbyZ4QoX-40" value="" style="edgeStyle=orthogonalEdgeStyle;rounded=0;orthogonalLoop=1;jettySize=auto;html=1;" edge="1" parent="WIyWlLk6GJQsqaUBKTNV-1" source="7_esvoWY841IkbyZ4QoX-9" target="7_esvoWY841IkbyZ4QoX-39">
          <mxGeometry relative="1" as="geometry" />
        </mxCell>
        <mxCell id="7_esvoWY841IkbyZ4QoX-9" value="加入运维校验，校验服务器上的list文件记录的md5是否与文件一致" style="rounded=1;whiteSpace=wrap;html=1;fillColor=#FF0000;" vertex="1" parent="WIyWlLk6GJQsqaUBKTNV-1">
          <mxGeometry x="160" y="540" width="120" height="60" as="geometry" />
        </mxCell>
        <mxCell id="7_esvoWY841IkbyZ4QoX-13" value="任务完成" style="ellipse;whiteSpace=wrap;html=1;rounded=1;" vertex="1" parent="WIyWlLk6GJQsqaUBKTNV-1">
          <mxGeometry x="160" y="650" width="120" height="60" as="geometry" />
        </mxCell>
        <mxCell id="7_esvoWY841IkbyZ4QoX-20" value="" style="edgeStyle=orthogonalEdgeStyle;rounded=0;orthogonalLoop=1;jettySize=auto;html=1;" edge="1" parent="WIyWlLk6GJQsqaUBKTNV-1" source="7_esvoWY841IkbyZ4QoX-17" target="7_esvoWY841IkbyZ4QoX-19">
          <mxGeometry relative="1" as="geometry" />
        </mxCell>
        <mxCell id="7_esvoWY841IkbyZ4QoX-17" value="校验不通过" style="rhombus;whiteSpace=wrap;html=1;fillColor=#FF0000;rounded=1;" vertex="1" parent="WIyWlLk6GJQsqaUBKTNV-1">
          <mxGeometry x="380" y="530" width="80" height="80" as="geometry" />
        </mxCell>
        <mxCell id="7_esvoWY841IkbyZ4QoX-23" value="" style="edgeStyle=orthogonalEdgeStyle;rounded=0;orthogonalLoop=1;jettySize=auto;html=1;" edge="1" parent="WIyWlLk6GJQsqaUBKTNV-1" source="7_esvoWY841IkbyZ4QoX-19" target="7_esvoWY841IkbyZ4QoX-22">
          <mxGeometry relative="1" as="geometry" />
        </mxCell>
        <mxCell id="7_esvoWY841IkbyZ4QoX-19" value="全量部署" style="whiteSpace=wrap;html=1;fillColor=#FF0000;rounded=1;" vertex="1" parent="WIyWlLk6GJQsqaUBKTNV-1">
          <mxGeometry x="520" y="540" width="120" height="60" as="geometry" />
        </mxCell>
        <mxCell id="7_esvoWY841IkbyZ4QoX-22" value="任务完成" style="ellipse;whiteSpace=wrap;html=1;fillColor=#FF0000;rounded=1;" vertex="1" parent="WIyWlLk6GJQsqaUBKTNV-1">
          <mxGeometry x="520" y="640" width="120" height="60" as="geometry" />
        </mxCell>
        <mxCell id="7_esvoWY841IkbyZ4QoX-26" value="昨天出错原因，差异资源计算结果有缺失，本地资源生成确认无误。原因可能是拉取的online_list存在问题" style="shape=note;whiteSpace=wrap;html=1;backgroundOutline=1;darkOpacity=0.05;fillColor=#FFFF00;" vertex="1" parent="WIyWlLk6GJQsqaUBKTNV-1">
          <mxGeometry x="560" y="215" width="170" height="130" as="geometry" />
        </mxCell>
        <mxCell id="7_esvoWY841IkbyZ4QoX-30" style="edgeStyle=orthogonalEdgeStyle;rounded=0;orthogonalLoop=1;jettySize=auto;html=1;entryX=1;entryY=0.5;entryDx=0;entryDy=0;exitX=0.5;exitY=1;exitDx=0;exitDy=0;" edge="1" parent="WIyWlLk6GJQsqaUBKTNV-1" source="7_esvoWY841IkbyZ4QoX-29" target="7_esvoWY841IkbyZ4QoX-2">
          <mxGeometry relative="1" as="geometry" />
        </mxCell>
        <mxCell id="7_esvoWY841IkbyZ4QoX-34" value="解决办法：加入多次校验（差异生成与最终源站资源校验）。确保单次任务会完整执行生成，部署，校验的全过程，确保资源一致性&lt;br&gt;影响：增加一定的运维成本，每次部署任务时间变长（视校验的资源大小而定，目前资源量应该在5分钟以内）" style="shape=card;whiteSpace=wrap;html=1;fillColor=#FFFF66;" vertex="1" parent="WIyWlLk6GJQsqaUBKTNV-1">
          <mxGeometry x="275" y="720" width="290" height="140" as="geometry" />
        </mxCell>
        <mxCell id="7_esvoWY841IkbyZ4QoX-38" value="" style="endArrow=none;dashed=1;html=1;dashPattern=1 3;strokeWidth=2;rounded=0;exitX=1;exitY=0.5;exitDx=0;exitDy=0;" edge="1" parent="WIyWlLk6GJQsqaUBKTNV-1" source="7_esvoWY841IkbyZ4QoX-0" target="7_esvoWY841IkbyZ4QoX-26">
          <mxGeometry width="50" height="50" relative="1" as="geometry">
            <mxPoint x="390" y="400" as="sourcePoint" />
            <mxPoint x="440" y="350" as="targetPoint" />
          </mxGeometry>
        </mxCell>
        <mxCell id="7_esvoWY841IkbyZ4QoX-29" value="加入校验，以及完整的日志输出" style="rounded=1;whiteSpace=wrap;html=1;fillColor=#FF3C00;" vertex="1" parent="WIyWlLk6GJQsqaUBKTNV-1">
          <mxGeometry x="400" y="250" width="120" height="60" as="geometry" />
        </mxCell>
        <mxCell id="7_esvoWY841IkbyZ4QoX-39" value="昨天出错原因：最新的运维架构导致源站部署方式检验不方便，因此之前运维取消了最终的资源校验，缺少最后一道屏障" style="shape=document;whiteSpace=wrap;html=1;boundedLbl=1;fillColor=#FFFF66;" vertex="1" parent="WIyWlLk6GJQsqaUBKTNV-1">
          <mxGeometry x="-60" y="522.5" width="170" height="95" as="geometry" />
        </mxCell>
      </root>
    </mxGraphModel>
  </diagram>
</mxfile>
